<svg width="24" height="24" viewBox="0 0 24 24" fill="none" xmlns="http://www.w3.org/2000/svg">
<path d="M22 4.83333V9C22 9.45833 21.625 9.83333 21.1667 9.83333H2.83333C2.375 9.83333 2 9.45833 2 9V4.83333C2 4.375 2.375 4 2.83333 4H21.1667C21.625 4 22 4.375 22 4.83333ZM3.66667 11.5H20.3333V19.8333C20.3333 20.2917 19.9583 20.6667 19.5 20.6667H4.5C4.04167 20.6667 3.66667 20.2917 3.66667 19.8333V11.5ZM9.5 14C9.5 14.4583 9.875 14.8333 10.3333 14.8333H13.6667C14.125 14.8333 14.5 14.4583 14.5 14C14.5 13.5417 14.125 13.1667 13.6667 13.1667H10.3333C9.875 13.1667 9.5 13.5417 9.5 14Z" fill="currentColor"/>
</svg>
