<svg width="24" height="24" viewBox="0 0 24 24" fill="none" xmlns="http://www.w3.org/2000/svg">
<path d="M4 20.9925C3.45 20.9925 3 20.5425 3 19.9925V12.9925C3 11.6625 3.52 10.4025 4.46 9.4525C5.41 8.5125 6.66 7.9925 8 7.9925H17.59L14.3 4.7025C13.91 4.3125 13.91 3.6825 14.3 3.2925C14.69 2.9025 15.32 2.9025 15.71 3.2925L20.71 8.2925C20.81 8.3925 20.88 8.5025 20.93 8.6225C20.98 8.7425 21 8.8625 21.01 9.0025C21.01 9.1425 20.98 9.2725 20.93 9.3825C20.88 9.5025 20.81 9.6125 20.71 9.7125L15.71 14.7125C15.32 15.1025 14.69 15.1025 14.3 14.7125C13.91 14.3225 13.91 13.6925 14.3 13.3025L17.59 10.0125H8C7.2 10.0125 6.45 10.3225 5.88 10.8925C5.31 11.4625 5 12.2125 5 13.0125V20.0125C5 20.5625 4.55 21.0125 4 21.0125V20.9925Z" fill="currentColor"/>
</svg>
