<svg width="24" height="24" viewBox="0 0 24 24" fill="none" xmlns="http://www.w3.org/2000/svg">
<path d="M12 19.9925C11.74 19.9925 11.49 19.8925 11.29 19.7025C10.9 19.3125 10.9 18.6825 11.29 18.2925L16.58 13.0025H5C4.45 13.0025 4 12.5525 4 12.0025C4 11.4525 4.45 11.0025 5 11.0025H16.59L11.29 5.7025C10.9 5.3125 10.9 4.6825 11.29 4.2925C11.68 3.9025 12.31 3.9025 12.7 4.2925L19.7 11.2925C19.8 11.3925 19.87 11.5025 19.92 11.6225C19.97 11.7425 20 11.8625 20 12.0025C20 12.1425 19.97 12.2725 19.92 12.3825C19.87 12.5025 19.8 12.6125 19.7 12.7125L12.7 19.7125C12.5 19.9125 12.25 20.0025 11.99 20.0025L12 19.9925Z" fill="currentColor"/>
</svg>
