<svg width="24" height="24" viewBox="0 0 24 24" fill="none" xmlns="http://www.w3.org/2000/svg">
<g clip-path="url(#clip0_81_871)">
<path d="M20 21C19.74 21 19.49 20.9 19.29 20.71L12 13.42L4.71 20.71C4.32 21.1 3.69 21.1 3.3 20.71C2.91 20.32 2.91 19.69 3.3 19.3L10.59 12.01L3.29 4.71C2.9 4.32 2.9 3.68 3.29 3.29C3.68 2.9 4.32 2.9 4.71 3.29L12 10.58L19.29 3.29C19.68 2.9 20.31 2.9 20.7 3.29C21.09 3.68 21.09 4.31 20.7 4.7L13.41 11.99L20.7 19.28C21.09 19.67 21.09 20.3 20.7 20.69C20.5 20.89 20.25 20.98 19.99 20.98L20 21Z" fill="currentColor"/>
</g>
<defs>
<clipPath id="clip0_81_871">
<rect width="18" height="18" fill="currentColor" transform="translate(3 3)"/>
</clipPath>
</defs>
</svg>
