<svg width="24" height="24" viewBox="0 0 24 24" fill="none" xmlns="http://www.w3.org/2000/svg">
<path d="M22.12 5.88C21.55 5.31 20.8 5 20 5H11.54L9.84 2.45C9.65 2.17 9.34 2 9.01 2H4C3.2 2 2.45 2.31 1.88 2.88C1.31 3.45 1 4.2 1 5V19C1 19.8 1.31 20.55 1.88 21.12C2.45 21.69 3.2 22 4 22H20C20.8 22 21.55 21.69 22.12 21.12C22.69 20.55 23 19.8 23 19V8C23 7.2 22.69 6.45 22.12 5.88ZM15 15H13V17C13 17.55 12.55 18 12 18C11.45 18 11 17.55 11 17V15H9C8.45 15 8 14.55 8 14C8 13.45 8.45 13 9 13H11V11C11 10.45 11.45 10 12 10C12.55 10 13 10.45 13 11V13H15C15.55 13 16 13.45 16 14C16 14.55 15.55 15 15 15Z" fill="currentColor"/>
</svg>
