<svg width="24" height="24" viewBox="0 0 24 24" fill="none" xmlns="http://www.w3.org/2000/svg">
<path d="M7.96203 16.9903C7.70344 16.9903 7.44485 16.8908 7.25588 16.7019C7.00723 16.4532 6.90778 16.0952 6.99729 15.757L7.99186 11.7787C8.03165 11.5997 8.12116 11.4406 8.25045 11.3212L17.6989 1.87274C18.8626 0.709087 20.9313 0.709087 22.0949 1.87274C22.6817 2.45954 23 3.23531 23 4.07075C23 4.90619 22.6718 5.68196 22.0949 6.26876L12.6465 15.7172C12.5172 15.8465 12.358 15.936 12.189 15.9758L8.21067 16.9704C8.1311 16.9903 8.05154 17.0002 7.97197 17.0002L7.96203 16.9903ZM14.0488 17.1096C13.6709 17.4975 13.1835 17.766 12.6564 17.8953L8.67812 18.8899C8.43942 18.9496 8.20072 18.9794 7.95208 18.9794C7.16636 18.9794 6.40054 18.6612 5.84358 18.1042C5.10759 17.3682 4.80922 16.2742 5.05787 15.2697L6.05244 11.2914C6.18174 10.7642 6.45027 10.2868 6.83816 9.90891L12.8255 3.92156C13.1438 3.6033 12.915 3.06623 12.4675 3.06623H4.09313C3.4566 3.06623 2.82007 3.21542 2.30289 3.58341C1.46745 4.16026 1 5.07527 1 6.04995V19.8547C1 20.4912 1.14919 21.1277 1.51718 21.6449C2.09403 22.4803 3.00904 22.9478 3.98373 22.9478H17.8083C18.4349 22.9478 19.0714 22.7887 19.5886 22.4306C20.4241 21.8538 20.8915 20.9387 20.8915 19.9641V11.4704C20.8915 11.0228 20.3544 10.804 20.0362 11.1123L14.0488 17.0997V17.1096Z" fill="currentColor"/>
</svg>
