<svg width="24" height="24" viewBox="0 0 24 24" fill="none" xmlns="http://www.w3.org/2000/svg">
<path d="M21 12.01V20.01C21 20.81 20.69 21.56 20.12 22.13C19.55 22.7 18.8 23.01 18 23.01H6C5.2 23.01 4.45 22.7 3.88 22.13C3.31 21.56 3 20.81 3 20.01V12.01C3 11.46 3.45 11.01 4 11.01H9V15.01C9 16.66 10.35 18.01 12 18.01C13.65 18.01 15 16.66 15 15.01V11.01H20C20.55 11.01 21 11.46 21 12.01ZM13 15.01V4.42L15.29 6.71C15.68 7.1 16.31 7.1 16.7 6.71C17.09 6.32 17.09 5.69 16.7 5.3L12.71 1.3C12.61 1.2 12.5 1.13 12.38 1.08C12.26 1.03 12.14 1.01 12 1C11.87 1 11.74 1.03 11.62 1.08C11.5 1.13 11.39 1.2 11.29 1.3L7.29 5.3C6.9 5.69 6.9 6.32 7.29 6.71C7.68 7.1 8.31 7.1 8.7 6.71L10.99 4.42V15.01C10.99 15.56 11.44 16.01 11.99 16.01C12.54 16.01 12.99 15.56 12.99 15.01H13Z" fill="currentColor"/>
</svg>
