<svg width="24" height="24" viewBox="0 0 24 24" fill="none" xmlns="http://www.w3.org/2000/svg">
<path d="M22 3V9C22 9.55 21.55 10 21 10C20.45 10 20 9.55 20 9V5.41L10.71 14.7C10.51 14.9 10.26 14.99 10 14.99C9.74 14.99 9.49 14.89 9.29 14.7C8.9 14.31 8.9 13.68 9.29 13.29L18.59 4H15C14.45 4 14 3.55 14 3C14 2.45 14.45 2 15 2H21C21.13 2 21.26 2.03 21.38 2.08C21.5 2.13 21.61 2.2 21.71 2.3C21.81 2.4 21.88 2.51 21.93 2.63C21.98 2.75 22.01 2.87 22.01 3.01L22 3ZM12.12 16.12C11.55 16.69 10.8 17 10 17C9.2 17 8.45 16.69 7.88 16.12C7.31 15.55 7 14.8 7 14C7 13.2 7.31 12.45 7.88 11.88L13.9 5.85C13.99 5.76 14.05 5.63 14.05 5.5C14.05 5.22 13.83 5 13.55 5H5C4.01 5 3.1 5.47 2.52 6.31C2.16 6.83 2 7.48 2 8.11V18.99C2 19.98 2.47 20.89 3.31 21.47C3.83 21.83 4.48 21.99 5.11 21.99H15.99C16.98 21.99 17.89 21.52 18.47 20.67C18.83 20.15 18.99 19.51 18.99 18.87V10.43C18.99 10.15 18.77 9.93 18.49 9.93C18.35 9.93 18.22 9.99 18.13 10.08L12.11 16.1L12.12 16.12Z" fill="white"/>
</svg>
