<svg width="24" height="24" viewBox="0 0 24 24" fill="none" xmlns="http://www.w3.org/2000/svg">
<path d="M20.94 7.68C20.97 7.76 20.98 7.84 20.99 7.93C21 8.08 20.99 8.23 20.93 8.38C20.78 8.75 20.41 9 20.01 9H14.01C13.46 9 13.01 8.55 13.01 8V2C13.01 1.6 13.25 1.23 13.63 1.08C13.75 1.03 13.88 1 14.01 1C14.14 1 14.26 1.03 14.37 1.07H14.38C14.5 1.12 14.61 1.19 14.71 1.29L20.71 7.29C20.8 7.38 20.86 7.48 20.91 7.58C20.92 7.61 20.93 7.64 20.94 7.68ZM21 11V20C21 20.8 20.69 21.55 20.12 22.12C19.55 22.69 18.8 23 18 23H6C5.2 23 4.44 22.69 3.88 22.12C3.31 21.55 3 20.8 3 20V4C3 3.2 3.31 2.44 3.88 1.88C4.45 1.31 5.2 1 6 1H11V8C11 9.65 12.35 11 14 11H21ZM16 17C16 16.45 15.55 16 15 16H13V14C13 13.45 12.55 13 12 13C11.45 13 11 13.45 11 14V16H9C8.45 16 8 16.45 8 17C8 17.55 8.45 18 9 18H11V20C11 20.55 11.45 21 12 21C12.55 21 13 20.55 13 20V18H15C15.55 18 16 17.55 16 17Z" fill="currentColor"/>
</svg>
