<svg width="24" height="24" viewBox="0 0 24 24" fill="none" xmlns="http://www.w3.org/2000/svg">
<path d="M20.94 8.68C20.97 8.76 20.99 8.85 20.99 8.94C20.99 9.09 20.99 9.24 20.93 9.38C20.78 9.75 20.41 10 20.01 10H13.01C12.46 10 12.01 9.55 12.01 9V2C12.01 1.6 12.25 1.23 12.63 1.08C12.75 1.03 12.88 1 13.01 1C13.14 1 13.27 1.03 13.39 1.08C13.51 1.13 13.62 1.2 13.71 1.3L20.71 8.3C20.79 8.38 20.86 8.49 20.91 8.59C20.92 8.62 20.93 8.65 20.94 8.68ZM20 12H13C11.35 12 10 10.65 10 9V1H6C5.2 1 4.45 1.31 3.88 1.88C3.31 2.45 3 3.2 3 4V20C3 20.8 3.31 21.55 3.88 22.12C4.45 22.69 5.2 23 6 23H18C18.8 23 19.55 22.69 20.12 22.12C20.69 21.55 21 20.8 21 20V12H20Z" fill="currentColor"/>
</svg>
