<svg width="24" height="24" viewBox="0 0 24 24" fill="none" xmlns="http://www.w3.org/2000/svg">
<path d="M6 22C3.79 22 2 20.21 2 18C2 16.14 3.28 14.57 5 14.13V3C5 2.45 5.45 2 6 2C6.55 2 7 2.45 7 3V14.13C8.39 14.49 9.49 15.58 9.86 16.96C11.67 16.77 13.35 15.97 14.66 14.66C15.97 13.35 16.76 11.68 16.96 9.86C15.26 9.4 14.01 7.84 14.01 6C14.01 3.79 15.8 2 18.01 2C20.22 2 22.01 3.79 22.01 6C22.01 7.87 20.71 9.45 18.97 9.88C18.77 12.22 17.76 14.39 16.08 16.07C14.4 17.75 12.23 18.76 9.89 18.96C9.46 20.7 7.88 22 6.01 22H6Z" fill="currentColor"/>
</svg>
