<svg width="24" height="24" viewBox="0 0 24 24" fill="none" xmlns="http://www.w3.org/2000/svg">
<path d="M22.5286 10.9L13.1 1.47143C12.4714 0.842857 11.45 0.842857 10.9 1.47143L8.93572 3.35714L11.45 5.87143C11.6071 5.79286 11.7643 5.79286 11.9214 5.79286C12.8643 5.79286 13.5714 6.5 13.5714 7.44286C13.5714 7.6 13.5714 7.75714 13.4929 7.91429L16.0071 10.4286C16.1643 10.35 16.3214 10.35 16.4786 10.35C17.4214 10.35 18.1286 11.0571 18.1286 12C18.1286 12.9429 17.3429 13.65 16.4786 13.65C15.6143 13.65 14.8286 12.9429 14.8286 12C14.8286 11.7643 14.9071 11.5286 14.9857 11.2929L12.6286 8.93572V15.0643C13.1786 15.3786 13.5714 15.9286 13.5714 16.5571C13.5714 17.5 12.8643 18.2071 11.9214 18.2071C10.9786 18.2071 10.2714 17.4214 10.2714 16.5571C10.2714 15.85 10.7429 15.2214 11.3714 14.9857V8.93572C10.7429 8.7 10.2714 8.07143 10.2714 7.36429C10.2714 7.12857 10.35 6.89286 10.4286 6.65714L7.99286 4.37857L1.47143 10.9C0.842857 11.5286 0.842857 12.55 1.47143 13.1L10.9 22.5286C11.5286 23.1571 12.55 23.1571 13.1 22.5286L22.5286 13.1C23.1571 12.4714 23.1571 11.5286 22.5286 10.9Z" fill="currentColor"/>
</svg>
