<svg width="24" height="24" viewBox="0 0 24 24" fill="none" xmlns="http://www.w3.org/2000/svg">
<path d="M13.5664 6.87231C10.8996 6.31324 8.81511 4.22878 8.25613 1.56187C8.2228 1.40302 8.13583 1.26046 8.00982 1.15815C7.88381 1.05584 7.72643 0.999995 7.56412 1C7.4018 1.00001 7.24443 1.05586 7.11843 1.15818C6.99242 1.2605 6.90546 1.40306 6.87214 1.56192C6.31312 4.22878 4.22866 6.3132 1.56179 6.87218C1.40296 6.90552 1.26043 6.9925 1.15813 7.1185C1.05583 7.2445 1 7.40185 1 7.56415C1 7.72645 1.05583 7.88381 1.15813 8.00981C1.26043 8.13581 1.40296 8.22278 1.56179 8.25612C4.22861 8.81519 6.31299 10.8996 6.87202 13.5665C6.90532 13.7253 6.99227 13.8679 7.11828 13.9702C7.24428 14.0726 7.40166 14.1284 7.56399 14.1284C7.72631 14.1284 7.88369 14.0726 8.00969 13.9702C8.1357 13.8679 8.22265 13.7253 8.25596 13.5665C8.81502 10.8996 10.8995 8.81519 13.5664 8.25625C13.7253 8.22295 13.8678 8.136 13.9702 8.01C14.0725 7.884 14.1284 7.72662 14.1284 7.5643C14.1284 7.40198 14.0725 7.24459 13.9702 7.11859C13.8679 6.99258 13.7253 6.90562 13.5664 6.87231ZM12.3977 18.5521C11.1412 18.2887 10.1591 17.3066 9.89565 16.05C9.86235 15.8912 9.7754 15.7486 9.6494 15.6462C9.5234 15.5439 9.36602 15.4881 9.2037 15.488C9.04137 15.488 8.88399 15.5439 8.75798 15.6462C8.63197 15.7485 8.54501 15.8911 8.51171 16.05C8.24827 17.3065 7.26613 18.2886 6.00963 18.552C5.85079 18.5854 5.70826 18.6723 5.60597 18.7983C5.50367 18.9243 5.44784 19.0817 5.44784 19.244C5.44784 19.4063 5.50367 19.5636 5.60597 19.6896C5.70826 19.8156 5.85079 19.9026 6.00963 19.936C7.26608 20.1994 8.24822 21.1815 8.51162 22.438C8.54492 22.5969 8.63188 22.7395 8.75788 22.8418C8.88389 22.9441 9.04127 23 9.20359 23C9.36592 23 9.5233 22.9441 9.6493 22.8418C9.77531 22.7395 9.86226 22.5969 9.89556 22.438C10.159 21.1815 11.1411 20.1994 12.3977 19.936C12.5565 19.9027 12.699 19.8157 12.8013 19.6897C12.9036 19.5637 12.9595 19.4063 12.9595 19.244C12.9595 19.0817 12.9036 18.9244 12.8013 18.7984C12.699 18.6724 12.5565 18.5854 12.3977 18.5521ZM21.9499 12.0058C20.2515 11.6498 18.9241 10.3223 18.5681 8.62394C18.5348 8.46506 18.4478 8.32249 18.3218 8.22015C18.1958 8.11782 18.0384 8.06196 17.8761 8.06195C17.7138 8.06195 17.5564 8.1178 17.4304 8.22013C17.3044 8.32245 17.2174 8.46502 17.1841 8.62389C16.8281 10.3223 15.5006 11.6497 13.8022 12.0057C13.6434 12.0391 13.5009 12.126 13.3986 12.252C13.2963 12.378 13.2405 12.5354 13.2405 12.6977C13.2405 12.86 13.2963 13.0173 13.3986 13.1433C13.5009 13.2693 13.6434 13.3563 13.8022 13.3897C15.5006 13.7457 16.828 15.0731 17.184 16.7715C17.2173 16.9304 17.3043 17.073 17.4303 17.1753C17.5563 17.2776 17.7137 17.3335 17.876 17.3335C18.0383 17.3335 18.1957 17.2776 18.3217 17.1753C18.4477 17.073 18.5347 16.9304 18.568 16.7715C18.9241 15.0731 20.2515 13.7457 21.9498 13.3897C22.1087 13.3564 22.2513 13.2695 22.3536 13.1435C22.4559 13.0175 22.5118 12.8601 22.5118 12.6978C22.5118 12.5355 22.456 12.3781 22.3536 12.2521C22.2513 12.1261 22.1087 12.0391 21.9499 12.0058Z" fill="currentColor"/>
</svg>
