<svg width="24" height="24" viewBox="0 0 24 24" fill="none" xmlns="http://www.w3.org/2000/svg">
<g clip-path="url(#clip0_150_4130)">
<path d="M18.01 18H15.01C14.46 18 14.01 17.55 14.01 17V13H8.01C7.46 13 7.01 12.55 7.01 12C7.01 11.45 7.46 11 8.01 11H14.01V7C14.01 6.45 14.46 6 15.01 6H18.01C18.8 6 19.57 6.15 20.31 6.46C21.04 6.76 21.7 7.2 22.26 7.76C22.82 8.32 23.26 8.97 23.56 9.71C23.86 10.44 24.02 11.21 24.02 12.01C24.02 12.81 23.87 13.57 23.56 14.31C23.26 15.04 22.82 15.7 22.26 16.26C21.7 16.82 21.05 17.26 20.31 17.56C19.58 17.86 18.81 18.02 18.01 18.02V18ZM16.01 16H18.01C18.54 16 19.05 15.9 19.54 15.7C20.03 15.5 20.46 15.21 20.84 14.83C21.21 14.46 21.51 14.02 21.71 13.53C21.91 13.04 22.01 12.53 22.01 12C22.01 11.47 21.91 10.96 21.71 10.47C21.51 9.98 21.22 9.55 20.84 9.17C20.47 8.8 20.03 8.5 19.54 8.3C19.05 8.1 18.54 8 18.01 8H16.01V11C16.56 11 17.01 11.45 17.01 12C17.01 12.55 16.56 13 16.01 13V16ZM9.01 18H6.01C5.22 18 4.45 17.85 3.71 17.54C2.98 17.24 2.32 16.8 1.76 16.24C0.63 15.11 0 13.6 0 12C0 10.4 0.63 8.89 1.77 7.76C2.9 6.62 4.41 6 6.01 6H9.01C9.56 6 10.01 6.45 10.01 7C10.01 7.55 9.56 8 9.01 8H6.01C4.94 8 3.94 8.42 3.18 9.17C2.42 9.92 2.01 10.93 2.01 12C2.01 13.07 2.43 14.07 3.18 14.83C3.55 15.2 3.99 15.5 4.48 15.7C4.97 15.9 5.48 16 6.01 16H9.01C9.56 16 10.01 16.45 10.01 17C10.01 17.55 9.56 18 9.01 18Z" fill="currentColor"/>
</g>
<defs>
<clipPath id="clip0_150_4130">
<rect width="24" height="24" fill="currentColor"/>
</clipPath>
</defs>
</svg>
