<svg width="24" height="24" viewBox="0 0 24 24" fill="none" xmlns="http://www.w3.org/2000/svg">
<path d="M12 23C5.9317 23 1 18.0608 1 11.9952C1 5.92954 5.9317 1 12 1C18.0683 1 23 5.92954 23 11.9952C23 18.0608 18.0683 22.9904 12 22.9904V23ZM12 3.8884C7.53065 3.8884 3.88967 7.52779 3.88967 11.9952C3.88967 16.4626 7.53065 20.102 12 20.102C16.4694 20.102 20.1103 16.4626 20.1103 11.9952C20.1103 7.52779 16.479 3.8884 12 3.8884Z" fill="#8C929B"/>
<path d="M23 12H20.1103C20.1103 7.52102 16.4694 3.88967 12 3.88967V1C18.0683 1 23 5.9317 23 12Z" fill="#007AFF"/>
</svg>
