<svg width="24" height="24" viewBox="0 0 24 24" fill="none" xmlns="http://www.w3.org/2000/svg">
<path d="M22 13V20C22 21.65 20.65 23 19 23H5C3.35 23 2 21.65 2 20V13C2 11.35 3.35 10 5 10H19C20.65 10 22 11.35 22 13ZM7.38 3.17C6.44 4.3 6 5.76 6 7.23V7.5C6 7.78 6.22 8 6.5 8H7.5C7.78 8 8 7.78 8 7.5V7C8 5.93 8.42 4.93 9.17 4.17C9.91 3.43 10.95 3 12 3C13.05 3 14.08 3.43 14.83 4.17C15.58 4.93 16 5.93 16 7V7.5C16 7.78 16.22 8 16.5 8H17.5C17.78 8 18 7.78 18 7.5V7.23C18 5.76 17.56 4.3 16.62 3.17C15.45 1.78 13.79 1 12 1C10.21 1 8.55 1.78 7.38 3.17Z" fill="currentColor"/>
</svg>
