<svg width="24" height="24" viewBox="0 0 24 24" fill="none" xmlns="http://www.w3.org/2000/svg">
<path d="M21.7 6.66375C21.68 6.59375 21.65 6.52375 21.61 6.45375C21.57 6.37375 21.51 6.30375 21.45 6.24375C21.2 5.90375 20.88 5.61375 20.51 5.39375L13.51 1.39375C12.6 0.863751 11.41 0.873751 10.51 1.39375L7.56 3.07375L15.95 7.91375C16.91 8.46375 17.51 9.50375 17.51 10.6138V13.6838C17.51 14.2338 17.06 14.6838 16.51 14.6838C15.96 14.6838 15.51 14.2338 15.51 13.6838V10.6138C15.51 10.2138 15.3 9.84375 14.95 9.64375L5.55 4.23375L3.51 5.40375C3.14 5.61375 2.82 5.90375 2.57 6.25375C2.51 6.31375 2.46 6.38375 2.41 6.46375C2.37 6.53375 2.34 6.59375 2.32 6.66375C2.11 7.07375 2.01 7.53375 2 8.00375V16.0038C2 16.5338 2.14 17.0438 2.4 17.5038C2.66 17.9538 3.04 18.3338 3.5 18.6038L10.5 22.6038C10.82 22.7838 11.17 22.9138 11.52 22.9638C11.66 23.0438 11.82 23.0838 12 23.0838C12.18 23.0838 12.33 23.0438 12.48 22.9638C12.84 22.9038 13.19 22.7838 13.5 22.6038L20.5 18.6038C20.96 18.3438 21.34 17.9638 21.6 17.5038C21.86 17.0438 22 16.5338 22 16.0038V7.99375C22 7.53375 21.89 7.07375 21.69 6.66375H21.7Z" fill="currentColor"/>
</svg>
