<svg width="24" height="24" viewBox="0 0 24 24" fill="none" xmlns="http://www.w3.org/2000/svg">
<path d="M1.91628 21.3257C1.41233 21.3257 1 20.9134 1 20.4094V18.5768C1 17.3582 1.47647 16.2037 2.33778 15.3332C3.19908 14.4719 4.3536 13.9954 5.58142 13.9954H12.9117C14.1395 13.9954 15.2849 14.4719 16.1554 15.3332C17.0167 16.2037 17.4931 17.349 17.4931 18.5768V20.4094C17.4931 20.9134 17.0808 21.3257 16.5768 21.3257H1.91628ZM9.24656 12.1628C6.71762 12.1628 4.66514 10.1104 4.66514 7.58142C4.66514 5.05248 6.71762 3 9.24656 3C11.7755 3 13.828 5.05248 13.828 7.58142C13.828 10.1104 11.7755 12.1628 9.24656 12.1628ZM14.3594 11.4481C14.3136 11.5214 14.277 11.6131 14.277 11.7047C14.277 11.9613 14.4785 12.1628 14.7351 12.1628C17.2641 12.1628 19.3165 10.1104 19.3165 7.58142C19.3165 5.05248 17.2732 3 14.7443 3C14.4877 3 14.2861 3.20158 14.2861 3.45814C14.2861 3.54977 14.3136 3.6414 14.3686 3.7147C15.1841 4.78676 15.6697 6.13369 15.6697 7.58142C15.6697 9.02915 15.1841 10.3761 14.3686 11.4481H14.3594ZM19.2982 20.7851C19.2982 20.7851 19.2982 20.8401 19.2982 20.8676C19.2982 21.1241 19.4998 21.3257 19.7563 21.3257H19.7472H22.0837C22.5877 21.3257 23 20.9134 23 20.4094V18.5768C23 17.3582 22.5235 16.2037 21.6622 15.3332C20.8009 14.4719 19.6464 13.9954 18.4186 13.9954C18.162 13.9954 17.9604 14.197 17.9604 14.4536C17.9604 14.5544 17.9971 14.646 18.0521 14.7193C18.8859 15.828 19.3349 17.1658 19.3349 18.5768V20.4094C19.3349 20.5377 19.3257 20.666 19.3074 20.7851H19.2982Z" fill="currentColor"/>
</svg>
