<svg width="24" height="24" viewBox="0 0 24 24" fill="none" xmlns="http://www.w3.org/2000/svg">
<path d="M13.01 21.9958C11.05 21.9958 9.09 21.4058 7.46 20.3158C5.67 19.1258 4.29 17.3458 3.57 15.3158C3.39 14.7958 3.66 14.2258 4.18 14.0358C4.7 13.8558 5.27 14.1258 5.46 14.6458C6.03 16.2758 7.14 17.6958 8.57 18.6458C10 19.5958 11.75 20.0758 13.46 19.9758C15.18 19.8758 16.85 19.2058 18.17 18.0958C19.49 16.9858 20.42 15.4458 20.8 13.7658C21.18 12.0858 21.01 10.2958 20.3 8.72584C19.59 7.15584 18.38 5.82584 16.87 4.99584C15.36 4.16584 13.59 3.83584 11.88 4.07584C10.17 4.31584 8.56 5.11584 7.34 6.33584L4.52 8.98584H8C8.55 8.98584 9 9.43584 9 9.98584C9 10.5358 8.55 10.9858 8 10.9858H1.99C1.85 10.9858 1.72 10.9558 1.6 10.9058C1.49 10.8558 1.38 10.7858 1.29 10.6958C1.27 10.6758 1.25 10.6558 1.24 10.6358H1.23C1.16 10.5558 1.11 10.4658 1.07 10.3758C1.02 10.2558 1 10.1358 1 9.99584V3.98584C1 3.43584 1.45 2.98584 2 2.98584C2.55 2.98584 3 3.43584 3 3.98584V7.67584L5.96 4.89584C7.46 3.39584 9.47 2.39584 11.6 2.09584C13.73 1.79584 15.95 2.20584 17.83 3.24584C19.72 4.28584 21.24 5.94584 22.12 7.91584C23 9.88584 23.22 12.1258 22.74 14.2258C22.26 16.3258 21.09 18.2458 19.45 19.6458C17.81 21.0358 15.72 21.8758 13.57 21.9958C13.38 22.0058 13.19 22.0158 13.01 22.0158V21.9958Z" fill="currentColor"/>
</svg>
