<svg width="24" height="24" viewBox="0 0 24 24" fill="none" xmlns="http://www.w3.org/2000/svg">
<path d="M22.4105 10.5913C22.0309 10.2116 21.5313 10.0018 21.0018 10.0018H20.832C20.5123 10.0018 20.1926 9.90191 19.9328 9.73206C19.663 9.55223 19.4532 9.30245 19.3233 9.00272V8.9228C19.1935 8.62307 19.1535 8.28338 19.2134 7.96367C19.2734 7.64396 19.4233 7.34423 19.653 7.10445L19.713 7.0445C19.9028 6.85468 20.0427 6.63488 20.1426 6.39509C20.2425 6.15531 20.2925 5.89555 20.2925 5.62579C20.2925 5.35604 20.2425 5.10627 20.1426 4.85649C20.0427 4.61671 19.8928 4.39691 19.713 4.20708C19.5232 4.01726 19.3034 3.87738 19.0636 3.77747C18.8238 3.67757 18.564 3.62761 18.2943 3.62761C18.0245 3.62761 17.7747 3.67757 17.525 3.77747C17.2752 3.87738 17.0654 4.02725 16.8756 4.20708L16.8156 4.26703C16.5758 4.49682 16.2861 4.65668 15.9564 4.70663C15.6267 4.75658 15.297 4.72661 14.9973 4.59673C14.6975 4.46685 14.4478 4.25704 14.2679 3.98728C14.0881 3.71753 13.9982 3.40781 13.9982 3.0881V2.99818C13.9982 2.46866 13.7884 1.95913 13.4087 1.58946C13.0291 1.2198 12.5295 1 12 1C11.4705 1 10.9609 1.20981 10.5913 1.58946C10.2116 1.96912 10.0018 2.46866 10.0018 2.99818V3.16803C10.0018 3.48774 9.90191 3.80745 9.73206 4.06721C9.56222 4.32698 9.30245 4.54678 9.00272 4.67666H8.9228C8.62307 4.80654 8.28338 4.8465 7.96367 4.78656C7.64396 4.72661 7.34423 4.57675 7.10445 4.34696L7.0445 4.28701C6.85468 4.09718 6.63488 3.95731 6.39509 3.8574C6.15531 3.75749 5.89555 3.70754 5.62579 3.70754C5.35604 3.70754 5.10627 3.75749 4.85649 3.8574C4.60672 3.95731 4.39691 4.10718 4.20708 4.28701C4.01726 4.47684 3.87738 4.69664 3.77747 4.93642C3.67757 5.1762 3.62761 5.43597 3.62761 5.70572C3.62761 5.97548 3.67757 6.22525 3.77747 6.47502C3.87738 6.7248 4.02725 6.9346 4.20708 7.12443L4.26703 7.18438C4.49682 7.42416 4.65668 7.72389 4.70663 8.0436C4.76658 8.36331 4.72661 8.703 4.59673 9.00272C4.48683 9.31244 4.27702 9.5822 4.00727 9.77203C3.73751 9.96185 3.4178 10.0718 3.0881 10.0817H2.99818C2.46866 10.0817 1.95913 10.2916 1.58946 10.6712C1.2198 11.0509 1 11.5504 1 12.0799C1 12.6094 1.20981 13.119 1.58946 13.4886C1.96912 13.8583 2.46866 14.0781 2.99818 14.0781H3.16803C3.48774 14.0781 3.80745 14.178 4.06721 14.3479C4.33697 14.5277 4.54678 14.7775 4.67666 15.0772C4.80654 15.3769 4.8465 15.7166 4.78656 16.0363C4.72661 16.356 4.57675 16.6558 4.34696 16.8955L4.28701 16.9555C4.09718 17.1453 3.95731 17.3651 3.8574 17.6049C3.75749 17.8447 3.70754 18.1044 3.70754 18.3742C3.70754 18.644 3.75749 18.8937 3.8574 19.1435C3.95731 19.3933 4.10718 19.6031 4.28701 19.7929C4.47684 19.9827 4.69664 20.1226 4.93642 20.2225C5.1762 20.3224 5.43597 20.3724 5.70572 20.3724C5.97548 20.3724 6.22525 20.3224 6.47502 20.2225C6.7148 20.1226 6.9346 19.9728 7.12443 19.7929L7.18438 19.733C7.42416 19.5032 7.72389 19.3433 8.0436 19.2934C8.36331 19.2334 8.703 19.2734 9.00272 19.4033C9.31244 19.5132 9.5822 19.723 9.77203 19.9927C9.96185 20.2625 10.0718 20.5822 10.0817 20.9119V21.0018C10.0817 21.5313 10.2916 22.0409 10.6712 22.4105C11.0509 22.7902 11.5504 23 12.0799 23C12.6094 23 13.119 22.7902 13.4886 22.4105C13.8583 22.0309 14.0781 21.5313 14.0781 21.0018V20.832C14.0781 20.5123 14.178 20.1926 14.3479 19.9328C14.5177 19.673 14.7775 19.4532 15.0772 19.3233C15.3769 19.1935 15.7166 19.1535 16.0363 19.2134C16.356 19.2734 16.6558 19.4233 16.8955 19.653L16.9555 19.713C17.1453 19.9028 17.3651 20.0427 17.6049 20.1426C17.8447 20.2425 18.1045 20.2925 18.3742 20.2925C18.644 20.2925 18.8937 20.2425 19.1435 20.1426C19.3833 20.0427 19.6031 19.8928 19.7929 19.713C19.9827 19.5232 20.1226 19.3034 20.2225 19.0636C20.3224 18.8238 20.3724 18.564 20.3724 18.2943C20.3724 18.0245 20.3224 17.7747 20.2225 17.525C20.1226 17.2852 19.9728 17.0654 19.7929 16.8756L19.733 16.8156C19.5032 16.5758 19.3433 16.2761 19.2934 15.9564C19.2434 15.6367 19.2734 15.297 19.4033 14.9973C19.5331 14.6975 19.743 14.4478 20.0127 14.2679C20.2825 14.0881 20.5922 13.9982 20.9119 13.9982H21.0018C21.5313 13.9982 22.0409 13.7884 22.4105 13.4087C22.7902 13.0291 23 12.5295 23 12C23 11.4705 22.7902 10.9609 22.4105 10.5913ZM12.01 14.9973C10.3515 14.9973 9.01272 13.6585 9.01272 12C9.01272 10.3415 10.3515 9.00272 12.01 9.00272C13.6685 9.00272 15.0073 10.3415 15.0073 12C15.0073 13.6585 13.6685 14.9973 12.01 14.9973Z" fill="currentColor"/>
</svg>
