<svg width="24" height="24" viewBox="0 0 24 24" fill="none" xmlns="http://www.w3.org/2000/svg">
<path d="M21.5 1H1.5C0.67 1 0 1.67 0 2.5V20.5C0 21.33 0.67 22 1.5 22H21.5C22.33 22 23 21.33 23 20.5V2.5C23 1.67 22.33 1 21.5 1ZM3.98 16.85C3.72 16.85 3.47 16.75 3.27 16.56C2.88 16.17 2.88 15.54 3.27 15.15L7.45 10.97L3.28 6.79C2.89 6.4 2.89 5.77 3.28 5.38C3.67 4.99 4.3 4.99 4.69 5.38L9.58 10.27C9.77 10.46 9.87 10.71 9.87 10.98C9.87 11.25 9.76 11.5 9.58 11.69L4.69 16.58C4.49 16.78 4.24 16.87 3.98 16.87V16.85ZM17.01 18.48H10.49C9.94 18.48 9.49 18.03 9.49 17.48C9.49 16.93 9.94 16.48 10.49 16.48H17.01C17.56 16.48 18.01 16.93 18.01 17.48C18.01 18.03 17.56 18.48 17.01 18.48Z" fill="currentColor"/>
</svg>
