<svg width="24" height="24" viewBox="0 0 24 24" fill="none" xmlns="http://www.w3.org/2000/svg">
<path d="M20.4492 1.5H3.55078C2.41875 1.5 1.5 2.41875 1.5 3.55078V20.4492C1.5 21.5812 2.41875 22.5 3.55078 22.5H20.4492C21.5812 22.5 22.5 21.5812 22.5 20.4492V3.55078C22.5 2.41875 21.5812 1.5 20.4492 1.5ZM13.6817 13.1525H11.0485V20.6543H8.96077V13.1525H6.33984V11.4668H13.6817V13.1525ZM20.4861 19.3254C20.2934 19.674 20.0267 19.9571 19.6945 20.1744C19.3623 20.3918 18.9727 20.5436 18.5297 20.6379C18.0867 20.7323 17.6192 20.7773 17.1269 20.7773C16.6225 20.7773 16.1426 20.7363 15.6873 20.6502C15.2321 20.564 14.8383 20.4369 14.5019 20.2646V18.2098C14.8752 18.5215 15.2771 18.7552 15.716 18.9111C16.1508 19.067 16.5937 19.145 17.0367 19.145C17.2992 19.145 17.5248 19.1203 17.7217 19.0752C17.9144 19.0301 18.0785 18.9644 18.2098 18.8783C18.341 18.7963 18.4394 18.6979 18.501 18.583C18.5666 18.4681 18.5953 18.3451 18.5953 18.2139C18.5953 18.0334 18.542 17.8734 18.4394 17.734C18.3369 17.5945 18.1975 17.4633 18.017 17.3443C17.8406 17.2254 17.6273 17.1106 17.3854 16.9998C17.1433 16.889 16.8767 16.7742 16.5979 16.6594C15.8801 16.36 15.3427 15.995 14.99 15.5602C14.6373 15.1295 14.4609 14.6045 14.4609 13.9934C14.4609 13.5135 14.5553 13.1033 14.7481 12.7588C14.9408 12.4142 15.2033 12.1312 15.5356 11.9098C15.8678 11.6883 16.2533 11.5242 16.6881 11.4176C17.1229 11.311 17.5863 11.2617 18.0744 11.2617C18.5543 11.2617 18.9767 11.2904 19.35 11.3479C19.7191 11.4052 20.0596 11.4955 20.3754 11.6144V13.534C20.2195 13.4273 20.0514 13.333 19.8709 13.251C19.6904 13.1689 19.5017 13.1033 19.309 13.05C19.1162 12.9967 18.9235 12.9556 18.7348 12.931C18.5461 12.9065 18.3615 12.8941 18.1933 12.8941C17.9596 12.8941 17.7422 12.9146 17.5494 12.9598C17.3567 13.0048 17.1925 13.0664 17.0613 13.1484C16.93 13.2305 16.8275 13.3289 16.7537 13.4396C16.6799 13.5545 16.643 13.6817 16.643 13.8211C16.643 13.9769 16.684 14.1123 16.766 14.2354C16.8481 14.3584 16.9629 14.4733 17.1146 14.5799C17.2664 14.6906 17.4469 14.7973 17.6602 14.8998C17.8734 15.0064 18.1154 15.1131 18.3861 15.2238C18.7552 15.3797 19.0834 15.5396 19.3787 15.716C19.67 15.8883 19.9242 16.0852 20.1334 16.3025C20.3426 16.5199 20.5025 16.7702 20.6133 17.049C20.724 17.3279 20.7773 17.6602 20.7773 18.0293C20.7773 18.5461 20.6789 18.9767 20.4861 19.3254Z" fill="currentColor"/>
</svg>
