<svg width="24" height="24" viewBox="0 0 24 24" fill="none" xmlns="http://www.w3.org/2000/svg">
<path d="M22 15V19C22 19.8 21.69 20.55 21.12 21.12C20.55 21.69 19.8 22 19 22H5C4.2 22 3.45 21.69 2.88 21.12C2.31 20.55 2 19.8 2 19V15C2 14.45 2.45 14 3 14H6.76L9.88 17.12C10.17 17.41 10.5 17.62 10.86 17.77C11.21 17.92 11.59 17.99 11.99 17.99C12.4 17.99 12.79 17.91 13.15 17.76C13.51 17.61 13.84 17.4 14.12 17.11L17.24 13.99H21C21.55 13.99 22 14.44 22 14.99V15ZM12 16C12.13 16 12.26 15.97 12.38 15.92C12.5 15.87 12.61 15.8 12.71 15.7L17.71 10.7C18.1 10.31 18.1 9.68 17.71 9.29C17.32 8.9 16.69 8.9 16.3 9.29L13.01 12.58V3C13.01 2.45 12.56 2 12.01 2C11.46 2 11.01 2.45 11.01 3V12.59L7.72 9.3C7.33 8.91 6.7 8.91 6.31 9.3C5.92 9.69 5.92 10.32 6.31 10.71L11.31 15.71C11.41 15.81 11.52 15.88 11.64 15.93C11.76 15.98 11.88 16 12.02 16.01L12 16Z" fill="currentColor"/>
</svg>
