<svg width="716" height="716" viewBox="0 0 716 716" fill="none" xmlns="http://www.w3.org/2000/svg">
<mask id="mask0_516_326" style="mask-type:alpha" maskUnits="userSpaceOnUse" x="49" y="6" width="599" height="710">
<path d="M73.6316 550.363L358.403 715.202V378.205C358.403 365.062 365.384 352.902 376.758 346.331L637.135 195.618C650.745 187.748 650.745 168.034 637.135 160.124L382.994 13.1106C367.777 4.29613 349.069 4.29613 333.852 13.1106L67.3957 167.247C56.0221 173.818 49.041 185.977 49.041 199.16V507.628C49.041 525.257 58.4144 541.549 73.6316 550.363Z" fill="#9DD1EC"/>
<path d="M635.832 338.37L569.82 300.091L415.336 389.526V501.419L635.832 373.744C649.41 365.892 649.41 346.222 635.832 338.37Z" fill="#9DD1EC"/>
<path d="M635.793 517.28L569.155 478.687L415.336 567.73V679.976L635.754 552.654C649.332 544.802 649.371 525.133 635.754 517.241L635.793 517.28Z" fill="#9DD1EC"/>
</mask>
<g mask="url(#mask0_516_326)">
<rect x="-152" y="-152" width="1020" height="1020" rx="246" stroke="#0F85B5" stroke-width="4"/>
<circle cx="358.5" cy="357.5" r="392.5" stroke="#0F85B5" stroke-width="4"/>
<circle cx="357.5" cy="357.5" r="258.5" stroke="#0F85B5" stroke-width="4"/>
<circle cx="358.5" cy="357.5" r="184.5" stroke="#0F85B5" stroke-width="4"/>
<path d="M-154 -154L870 870" stroke="#0F85B5" stroke-width="4"/>
<path d="M869.999 -154L-154.001 870" stroke="#0F85B5" stroke-width="4"/>
<path d="M358 -154V870" stroke="#0F85B5" stroke-width="4"/>
<path d="M174 -154V870" stroke="#0F85B5" stroke-width="4"/>
<path d="M543 -154V870" stroke="#0F85B5" stroke-width="4"/>
<path d="M869.999 358L-154.001 358" stroke="#0F85B5" stroke-width="4"/>
<path d="M869.999 174L-154.001 174" stroke="#0F85B5" stroke-width="4"/>
<path d="M869.999 543L-154.001 543" stroke="#0F85B5" stroke-width="4"/>
</g>
</svg>
