<svg width="32" height="32" viewBox="0 0 32 32" fill="none" xmlns="http://www.w3.org/2000/svg">
  <path fill="currentColor" d="m27.41,12.59L15.41.59c-.78-.78-2.05-.78-2.83,0l-2.46,2.46,3.24,3.24c.2-.06.41-.09.63-.09,1.17,0,2.12.95,2.12,2.12,0,.22-.03.43-.09.63l3.22,3.22c.21-.07.43-.1.65-.1,1.17,0,2.12.95,2.12,2.12s-.95,2.12-2.12,2.12-2.12-.95-2.12-2.12c0-.31.07-.61.19-.88l-3-3v7.77c.69.35,1.16,1.07,1.16,1.89,0,1.17-.95,2.12-2.12,2.12s-2.12-.95-2.12-2.12c0-.91.57-1.69,1.38-1.99v-7.68c-.8-.3-1.38-1.08-1.38-1.99,0-.32.07-.62.2-.9l-3.16-3.16L.59,12.59c-.78.78-.78,2.05,0,2.83l12,12c.78.78,2.05.78,2.83,0l12-12c.78-.78.78-2.05,0-2.83Z"/>
</svg>
