<svg xmlns="http://www.w3.org/2000/svg" fill="none" viewBox="0 0 28 28">
  <path fill="currentColor" d="M27.4,12.6l-12-12c-0.8-0.8-2.1-0.8-2.8,0L10.1,3l3.2,3.2c0.2-0.1,0.4-0.1,0.6-0.1c1.2,0,2.1,0.9,2.1,2.1
    c0,0.2,0,0.4-0.1,0.6l3.2,3.2c0.2-0.1,0.4-0.1,0.6-0.1c1.2,0,2.1,0.9,2.1,2.1s-1,2.1-2.1,2.1s-2.1-0.9-2.1-2.1
    c0-0.3,0.1-0.6,0.2-0.9l-3-3v7.8c0.7,0.4,1.2,1.1,1.2,1.9c0,1.2-0.9,2.1-2.1,2.1s-2.1-1-2.1-2.1c0-0.9,0.6-1.7,1.4-2v-7.7
    c-0.8-0.3-1.4-1.1-1.4-2c0-0.3,0.1-0.6,0.2-0.9L8.9,4.3l-8.3,8.3c-0.8,0.8-0.8,2.1,0,2.8l12,12c0.8,0.8,2.1,0.8,2.8,0l12-12
    C28.2,14.6,28.2,13.4,27.4,12.6L27.4,12.6z"/>
</svg>
