<svg width="32" height="32" viewBox="0 0 32 32" fill="none" xmlns="http://www.w3.org/2000/svg">
    <path fill="currentColor" d="M27.2656 2H4.73438C3.225 2 2 3.225 2 4.73438V27.2656C2 28.775 3.225 30 4.73438 30H27.2656C28.775 30 30 28.775 30 27.2656V4.73438C30 3.225 28.775 2 27.2656 2ZM18.2422 17.5367H14.7313V27.5391H11.9477V17.5367H8.45312V15.2891H18.2422V17.5367ZM27.3148 25.7672C27.0578 26.232 26.7023 26.6094 26.2594 26.8992C25.8164 27.1891 25.2969 27.3914 24.7063 27.5172C24.1156 27.643 23.4922 27.7031 22.8359 27.7031C22.1633 27.7031 21.5234 27.6484 20.9164 27.5336C20.3094 27.4187 19.7844 27.2492 19.3359 27.0195V24.2797C19.8336 24.6953 20.3695 25.007 20.9547 25.2148C21.5344 25.4227 22.125 25.5266 22.7156 25.5266C23.0656 25.5266 23.3664 25.4938 23.6289 25.4336C23.8859 25.3734 24.1047 25.2859 24.2797 25.1711C24.4547 25.0617 24.5859 24.9305 24.668 24.7773C24.7555 24.6242 24.7937 24.4602 24.7937 24.2852C24.7937 24.0445 24.7227 23.8312 24.5859 23.6453C24.4492 23.4594 24.2633 23.2844 24.0227 23.1258C23.7875 22.9672 23.5031 22.8141 23.1805 22.6664C22.8578 22.5187 22.5023 22.3656 22.1305 22.2125C21.1734 21.8133 20.457 21.3266 19.9867 20.7469C19.5164 20.1727 19.2812 19.4727 19.2812 18.6578C19.2812 18.018 19.407 17.4711 19.6641 17.0117C19.9211 16.5523 20.2711 16.175 20.7141 15.8797C21.157 15.5844 21.6711 15.3656 22.2508 15.2234C22.8305 15.0813 23.4484 15.0156 24.0992 15.0156C24.7391 15.0156 25.3023 15.0539 25.8 15.1305C26.2922 15.207 26.7461 15.3273 27.1672 15.4859V18.0453C26.9594 17.9031 26.7352 17.7773 26.4945 17.668C26.2539 17.5586 26.0023 17.4711 25.7453 17.4C25.4883 17.3289 25.2313 17.2742 24.9797 17.2414C24.7281 17.2086 24.482 17.1922 24.2578 17.1922C23.9461 17.1922 23.6562 17.2195 23.3992 17.2797C23.1422 17.3398 22.9234 17.4219 22.7484 17.5312C22.5734 17.6406 22.4367 17.7719 22.3383 17.9195C22.2398 18.0727 22.1906 18.2422 22.1906 18.4281C22.1906 18.6359 22.2453 18.8164 22.3547 18.9805C22.4641 19.1445 22.6172 19.2977 22.8195 19.4398C23.0219 19.5875 23.2625 19.7297 23.5469 19.8664C23.8312 20.0086 24.1539 20.1508 24.5148 20.2984C25.007 20.5063 25.4445 20.7195 25.8383 20.9547C26.2266 21.1844 26.5656 21.4469 26.8445 21.7367C27.1234 22.0266 27.3367 22.3602 27.4844 22.732C27.632 23.1039 27.7031 23.5469 27.7031 24.0391C27.7031 24.7281 27.5719 25.3023 27.3148 25.7672Z" />
</svg>
