<svg width="1024" height="1024" viewBox="0 0 1024 1024" fill="none" xmlns="http://www.w3.org/2000/svg">
<circle cx="512.5" cy="511.5" r="392.5" stroke="#9DD1EC" stroke-width="4"/>
<circle cx="512.5" cy="511.5" r="392.5" stroke="#9DD1EC" stroke-width="4"/>
<circle cx="511.5" cy="511.5" r="258.5" stroke="#9DD1EC" stroke-width="4"/>
<circle cx="511.5" cy="511.5" r="258.5" stroke="#9DD1EC" stroke-width="4"/>
<circle cx="512.5" cy="511.5" r="184.5" stroke="#9DD1EC" stroke-width="4"/>
<circle cx="512.5" cy="511.5" r="184.5" stroke="#9DD1EC" stroke-width="4"/>
<path d="M0 0L1024 1024" stroke="#9DD1EC" stroke-width="4"/>
<path d="M0 0L1024 1024" stroke="#9DD1EC" stroke-width="4"/>
<path d="M1024 0L-0.00114339 1024" stroke="#9DD1EC" stroke-width="4"/>
<path d="M1024 0L-0.00114339 1024" stroke="#9DD1EC" stroke-width="4"/>
<path d="M512 0V1024" stroke="#9DD1EC" stroke-width="4"/>
<path d="M512 0V1024" stroke="#9DD1EC" stroke-width="4"/>
<path d="M328 0V1024" stroke="#9DD1EC" stroke-width="4"/>
<path d="M328 0V1024" stroke="#9DD1EC" stroke-width="4"/>
<path d="M950 0V1024" stroke="#9DD1EC" stroke-width="4"/>
<path d="M950 0V1024" stroke="#9DD1EC" stroke-width="4"/>
<path d="M697 0V1024" stroke="#9DD1EC" stroke-width="4"/>
<path d="M697 0V1024" stroke="#9DD1EC" stroke-width="4"/>
<path d="M74 0V1024" stroke="#9DD1EC" stroke-width="4"/>
<path d="M74 0V1024" stroke="#9DD1EC" stroke-width="4"/>
<path d="M1024 512L-0.00107241 512" stroke="#9DD1EC" stroke-width="4"/>
<path d="M1024 512L-0.00107241 512" stroke="#9DD1EC" stroke-width="4"/>
<path d="M1024 328L-0.00107241 328" stroke="#9DD1EC" stroke-width="4"/>
<path d="M1024 328L-0.00107241 328" stroke="#9DD1EC" stroke-width="4"/>
<path d="M1024 950L-0.00107241 950" stroke="#9DD1EC" stroke-width="4"/>
<path d="M1024 950L-0.00107241 950" stroke="#9DD1EC" stroke-width="4"/>
<path d="M1024 697L-0.00107241 697" stroke="#9DD1EC" stroke-width="4"/>
<path d="M1024 697L-0.00107241 697" stroke="#9DD1EC" stroke-width="4"/>
<path d="M1024 74L-0.00107241 74" stroke="#9DD1EC" stroke-width="4"/>
<path d="M1024 74L-0.00107241 74" stroke="#9DD1EC" stroke-width="4"/>
</svg>
